<?xml version="1.0" encoding="utf-8"?>
<!-- Generator: Adobe Illustrator 23.1.0, SVG Export Plug-In . SVG Version: 6.00 Build 0)  -->
<svg version="1.1" xmlns="http://www.w3.org/2000/svg" xmlns:xlink="http://www.w3.org/1999/xlink" x="0px" y="0px" width="297.2px"
	 height="44.2px" viewBox="0 0 297.2 44.2" style="enable-background:new 0 0 297.2 44.2;" xml:space="preserve">
<style type="text/css">
	.st0{display:none;}
	.st1{display:inline;}
	.st2{fill:#8D627D;}
	.st3{fill:#722873;}
	.st4{fill:#F9741B;}
</style>
<g id="Слой_2" class="st0">
	
		<image style="display:inline;overflow:visible;" width="1280" height="190" xlink:href="C:\Users\cloud\Desktop\photo_2022-04-11_17-00-29 (2).jpg"  transform="matrix(0.2337 0 0 0.2337 -5.366003e-02 -0.1)">
	</image>
</g>
<g id="Слой_1">
	<g class="st0">
		<g class="st1">
		</g>
		<g class="st1">
			<polygon class="st2" points="177,23.9 185.6,23.9 195.3,13.2 199.3,28.5 210.5,-0.4 210.9,-0.4 217.7,34 222.5,20.8 254.2,20.8 
				254.2,23.8 224.6,23.8 217.4,44.2 216.8,44.2 209.8,9.4 199.1,37.2 198.4,37.2 193.7,19.4 187.1,26.5 177,26.5 			"/>
			<polygon class="st2" points="229.3,17.5 229.3,5.3 231.5,5.3 231.5,10.3 235.1,10.3 235.1,5.3 237.2,5.3 237.2,17.5 235,17.5 
				235,14.8 235,12.9 235,12.2 231.5,12.2 231.5,17.5 			"/>
			<polygon class="st2" points="252.8,17.5 251.6,17.5 248.5,5.2 250.9,5.2 252.9,14.1 254.8,5.5 257.2,5.5 259,14.2 261,5.2 
				263.2,5.2 260.3,17.5 257.9,17.5 255.9,10.1 254.1,17.5 			"/>
			<path class="st2" d="M239.4,8.4c0.4-2,2.2-3.4,4.3-3.4c2,0,3.7,1.4,4.2,3.4c-0.7,0-1.4,0-2.2,0c-0.3-0.9-1.1-1.4-2-1.5
				c-0.9,0-1.7,0.6-2,1.4C240.8,8.4,240.1,8.4,239.4,8.4z"/>
			<polygon class="st2" points="239.4,8.4 239.4,14.4 241.6,14.4 241.6,8.4 			"/>
			<polyline class="st2" points="245.6,8.4 245.6,14.2 247.8,14.2 247.8,8.4 			"/>
			<path class="st2" d="M239.4,14.4c0.5,2,2.2,3.4,4.2,3.4c2.1,0,3.9-1.5,4.2-3.6c-0.7,0-1.4,0-2.2,0c-0.2,0.9-1.1,1.6-2,1.7
				c-0.9,0-1.8-0.6-2.1-1.4C240.8,14.4,240.1,14.4,239.4,14.4z"/>
		</g>
	</g>
	<g>
		<g>
			<path class="st3" d="M183.4,24.1H177l2.6,2.5l0.1,0.1l0,0h7.3l6.6-7l4.7,17.8h0.7l10.8-27.9l7,34.8h0.6l7.2-20.4h28.6
				c-0.3-1-0.3-2,0-3h-30.7l-4.7,13.3l-6.9-34.5h-0.4l-11.3,29l-4-15.3l-9.6,10.6H183.4"/>
		</g>
		<g>
			<path class="st3" d="M230.3,5.7v11.9h-2v-5.2h-3.8v5.2h-2V5.7h2v5.1h3.8V5.7H230.3z"/>
			<path class="st3" d="M232.6,13.9V9.5c0-2.5,1.6-4,4.2-4c2.6,0,4.2,1.5,4.2,4v4.4c0,2.5-1.6,4-4.2,4
				C234.2,17.9,232.6,16.4,232.6,13.9z M238.9,13.9V9.5c0-1.5-0.7-2.3-2.1-2.3c-1.4,0-2.1,0.8-2.1,2.3v4.4c0,1.5,0.7,2.3,2.1,2.3
				C238.2,16.2,238.9,15.4,238.9,13.9z"/>
			<path class="st3" d="M256.3,5.7l-3,11.9h-2.1l-1.3-5.3c-0.3-1.1-0.6-2.9-0.6-3.8h-0.1c-0.1,1-0.4,2.7-0.7,3.8l-1.3,5.3h-2.1
				L242,5.7h2l1.4,6.5c0.2,0.9,0.5,2.4,0.6,3.2h0.1c0.1-0.8,0.4-2.2,0.6-3.3l1.4-6.3h2.1l1.4,6.3c0.2,1,0.5,2.5,0.6,3.3h0.1
				c0.1-0.8,0.4-2.3,0.6-3.2l1.4-6.5H256.3z"/>
		</g>
		<g>
			<g>
				<path class="st4" d="M235.8,31H233v10.4h-2V31h-2.8v-1.6h7.7V31H235.8z"/>
				<path class="st4" d="M237.1,37.5v-4.4c0-2.5,1.6-4,4.2-4c2.6,0,4.2,1.5,4.2,4v4.4c0,2.5-1.6,4-4.2,4
					C238.7,41.5,237.1,40,237.1,37.5z M243.4,37.5v-4.4c0-1.5-0.7-2.3-2.1-2.3c-1.4,0-2.1,0.8-2.1,2.3v4.4c0,1.5,0.7,2.3,2.1,2.3
					C242.6,39.8,243.4,39,243.4,37.5z"/>
				<path class="st4" d="M251.1,38h2c0,1.2,0.8,1.8,2,1.8c1.3,0,1.9-0.7,1.9-1.6c0-2.4-5.7-2.5-5.7-6.1c0-1.7,1.4-3,3.7-3
					s3.7,1.3,3.8,3.4h-2c0-1.1-0.7-1.7-1.8-1.7c-1.1,0-1.7,0.5-1.7,1.4c0,2.3,5.7,2.3,5.7,6.1c0,1.8-1.4,3.3-4,3.3
					C252.6,41.5,251.1,40.2,251.1,38z"/>
				<path class="st4" d="M268.5,33.2c0,2.5-1.5,3.9-4.2,3.9h-1.6v4.2h-2v-12h3.6C267,29.3,268.5,30.7,268.5,33.2z M266.5,33.2
					c0-1.5-0.7-2.2-2.2-2.2h-1.6v4.5h1.6C265.8,35.5,266.5,34.7,266.5,33.2z"/>
				<path class="st4" d="M270.1,37.5v-4.4c0-2.5,1.6-4,4.2-4c2.6,0,4.2,1.5,4.2,4v4.4c0,2.5-1.6,4-4.2,4
					C271.7,41.5,270.1,40,270.1,37.5z M276.4,37.5v-4.4c0-1.5-0.7-2.3-2.1-2.3s-2.1,0.8-2.1,2.3v4.4c0,1.5,0.7,2.3,2.1,2.3
					C275.6,39.8,276.4,39,276.4,37.5z"/>
				<path class="st4" d="M283.9,37h-1.2v4.4h-2v-12h3.5c2.6,0,4.1,1.4,4.1,3.8c0,1.9-0.9,3.2-2.4,3.7l3,4.6h-2.2L283.9,37z
					 M282.7,35.3h1.5c1.4,0,2.1-0.8,2.1-2.2s-0.7-2.1-2.1-2.1h-1.5V35.3z"/>
				<path class="st4" d="M297.1,31h-2.8v10.4h-2V31h-2.8v-1.6h7.7V31H297.1z"/>
			</g>
		</g>
		<path class="st3" d="M254.2,21"/>
		<polygon class="st3" points="290.6,21 290.6,24 297.2,24 292.4,21 		"/>
	</g>
	<rect x="252.8" y="21" class="st3" width="39.4" height="3"/>
	<g>
		<g>
			<path class="st3" d="M6.3,24.1H0l2.6,2.5l0.1,0.1h3.5C6.2,25.8,6.2,24.9,6.3,24.1z"/>
		</g>
	</g>
	<rect x="5.5" y="24.1" class="st3" width="175.4" height="2.6"/>
</g>
</svg>
