<?xml version="1.0" encoding="utf-8"?>
<!-- Generator: Adobe Illustrator 23.1.0, SVG Export Plug-In . SVG Version: 6.00 Build 0)  -->
<svg version="1.1" id="Слой_1" xmlns="http://www.w3.org/2000/svg" xmlns:xlink="http://www.w3.org/1999/xlink" x="0px" y="0px"
	 width="44.2px" height="44.2px" viewBox="0 0 44.2 44.2" style="enable-background:new 0 0 44.2 44.2;" xml:space="preserve">
<style type="text/css">
	.st0{display:none;}
	.st1{display:inline;}
	.st2{fill:#8D627D;}
	.st3{fill:#722873;}
	.st4{fill:#F9741B;}
</style>
<g class="st0">
	<g class="st1">
		<g>
			<polygon class="st2" points="0,23.9 8.6,23.9 18.3,13.2 22.3,28.5 33.5,-0.4 33.9,-0.4 40.7,34 45.5,20.8 77.2,20.8 77.2,23.8 
				47.6,23.8 40.4,44.2 39.8,44.2 32.8,9.4 22.1,37.2 21.4,37.2 16.7,19.4 10.1,26.5 0,26.5 			"/>
			<polygon class="st2" points="52.3,17.5 52.3,5.3 54.5,5.3 54.5,10.3 58.1,10.3 58.1,5.3 60.2,5.3 60.2,17.5 58,17.5 58,14.8 
				58,12.9 58,12.2 54.5,12.2 54.5,17.5 			"/>
			<polygon class="st2" points="75.8,17.5 74.6,17.5 71.5,5.2 73.9,5.2 75.9,14.1 77.8,5.5 80.2,5.5 82,14.2 84,5.2 86.2,5.2 
				83.3,17.5 80.9,17.5 78.9,10.1 77.1,17.5 			"/>
			<path class="st2" d="M62.4,8.4c0.4-2,2.2-3.4,4.3-3.4c2,0,3.7,1.4,4.2,3.4c-0.7,0-1.4,0-2.2,0c-0.3-0.9-1.1-1.4-2-1.5
				c-0.9,0-1.7,0.6-2,1.4C63.8,8.4,63.1,8.4,62.4,8.4z"/>
			<polygon class="st2" points="62.4,8.4 62.4,14.4 64.6,14.4 64.6,8.4 			"/>
			<polyline class="st2" points="68.6,8.4 68.6,14.2 70.8,14.2 70.8,8.4 			"/>
			<path class="st2" d="M62.4,14.4c0.5,2,2.2,3.4,4.2,3.4c2.1,0,3.9-1.5,4.2-3.6c-0.7,0-1.4,0-2.2,0c-0.2,0.9-1.1,1.6-2,1.7
				c-0.9,0-1.8-0.6-2.1-1.4C63.8,14.4,63.1,14.4,62.4,14.4z"/>
		</g>
	</g>
	<g class="st1">
		<g>
			<path class="st3" d="M76.2,21H45.5l-4.7,13.3L33.9-0.2h-0.4l-11.3,29l-4-15.3L8.6,24.1H0l2.6,2.5l0.1,0.1l0,0H10l6.6-7l4.7,17.8
				H22L32.8,9.6l7,34.8h0.6L47.6,24h28.6C75.9,23,75.9,22,76.2,21z"/>
		</g>
		<g>
			<path class="st3" d="M53.3,5.7v11.9h-2v-5.2h-3.8v5.2h-2V5.7h2v5.1h3.8V5.7H53.3z"/>
			<path class="st3" d="M55.6,13.9V9.5c0-2.5,1.6-4,4.2-4S64,7,64,9.5v4.4c0,2.5-1.6,4-4.2,4S55.6,16.4,55.6,13.9z M61.9,13.9V9.5
				c0-1.5-0.7-2.3-2.1-2.3c-1.4,0-2.1,0.8-2.1,2.3v4.4c0,1.5,0.7,2.3,2.1,2.3C61.2,16.2,61.9,15.4,61.9,13.9z"/>
			<path class="st3" d="M79.3,5.7l-3,11.9h-2.1l-1.3-5.3c-0.3-1.1-0.6-2.9-0.6-3.8h-0.1c-0.1,1-0.4,2.7-0.7,3.8l-1.3,5.3h-2.1
				L65,5.7h2l1.4,6.5c0.2,0.9,0.5,2.4,0.6,3.2h0.1c0.1-0.8,0.4-2.2,0.6-3.3l1.4-6.3h2.1l1.4,6.3c0.2,1,0.5,2.5,0.6,3.3h0.1
				c0.1-0.8,0.4-2.3,0.6-3.2l1.4-6.5H79.3z"/>
		</g>
		<g>
			<g>
				<path class="st4" d="M58.8,31H56v10.4h-2V31h-2.8v-1.6h7.7V31H58.8z"/>
				<path class="st4" d="M60.1,37.5v-4.4c0-2.5,1.6-4,4.2-4s4.2,1.5,4.2,4v4.4c0,2.5-1.6,4-4.2,4S60.1,40,60.1,37.5z M66.4,37.5
					v-4.4c0-1.5-0.7-2.3-2.1-2.3s-2.1,0.8-2.1,2.3v4.4c0,1.5,0.7,2.3,2.1,2.3C65.6,39.8,66.4,39,66.4,37.5z"/>
				<path class="st4" d="M74.1,38h2c0,1.2,0.8,1.8,2,1.8c1.3,0,1.9-0.7,1.9-1.6c0-2.4-5.7-2.5-5.7-6.1c0-1.7,1.4-3,3.7-3
					c2.3,0,3.7,1.3,3.8,3.4h-2c0-1.1-0.7-1.7-1.8-1.7c-1.1,0-1.7,0.5-1.7,1.4c0,2.3,5.7,2.3,5.7,6.1c0,1.8-1.4,3.3-4,3.3
					C75.6,41.5,74.1,40.2,74.1,38z"/>
				<path class="st4" d="M91.5,33.2c0,2.5-1.5,3.9-4.2,3.9h-1.6v4.2h-2v-12h3.6C90,29.3,91.5,30.7,91.5,33.2z M89.5,33.2
					c0-1.5-0.7-2.2-2.2-2.2h-1.6v4.5h1.6C88.8,35.5,89.5,34.7,89.5,33.2z"/>
				<path class="st4" d="M93.1,37.5v-4.4c0-2.5,1.6-4,4.2-4s4.2,1.5,4.2,4v4.4c0,2.5-1.6,4-4.2,4S93.1,40,93.1,37.5z M99.4,37.5
					v-4.4c0-1.5-0.7-2.3-2.1-2.3s-2.1,0.8-2.1,2.3v4.4c0,1.5,0.7,2.3,2.1,2.3C98.6,39.8,99.4,39,99.4,37.5z"/>
				<path class="st4" d="M106.9,37h-1.2v4.4h-2v-12h3.5c2.6,0,4.1,1.4,4.1,3.8c0,1.9-0.9,3.2-2.4,3.7l3,4.6h-2.2L106.9,37z
					 M105.7,35.3h1.5c1.4,0,2.1-0.8,2.1-2.2s-0.7-2.1-2.1-2.1h-1.5V35.3z"/>
				<path class="st4" d="M120.1,31h-2.8v10.4h-2V31h-2.8v-1.6h7.7L120.1,31L120.1,31z"/>
			</g>
		</g>
		<path class="st3" d="M77.2,21"/>
		<polygon class="st3" points="74.5,21 74.5,24 81.1,24 76.3,21 		"/>
	</g>
</g>
<g>
	<g>
		<g>
			<path class="st3" d="M41.5,21.4H24.8l-2.6,8L18.5,8.7h-0.2L12.1,26l-2.2-9.1l-5.2,6.3H0l1.4,1.5l0.1,0.1l0,0h4l3.6-4.2l2.6,10.6
				H12l5.9-16.6l3.8,20.8H22l4-12.3h15.6C41.4,22.6,41.4,21.9,41.5,21.4z"/>
		</g>
		<path class="st3" d="M42.1,21.4"/>
		<polygon class="st3" points="40.6,21.4 40.6,23.1 44.2,23.1 41.6,21.4 		"/>
	</g>
</g>
</svg>
